<svg xmlns="http://www.w3.org/2000/svg" viewBox="30 48 360 255" role="img" aria-label="Marteder Textile">
  <defs>
    <linearGradient id="goldGrad" x1="0%" y1="0%" x2="100%" y2="100%">
      <stop offset="0%" stop-color="#F2E6B3"/>
      <stop offset="40%" stop-color="#D4AF37"/>
      <stop offset="100%" stop-color="#9A7420"/>
    </linearGradient>
    <linearGradient id="goldGradVert" x1="0%" y1="0%" x2="0%" y2="100%">
      <stop offset="0%" stop-color="#EED991"/>
      <stop offset="100%" stop-color="#B8892E"/>
    </linearGradient>
    <linearGradient id="burgundyGrad" x1="0%" y1="0%" x2="0%" y2="100%">
      <stop offset="0%" stop-color="#8B2A38"/>
      <stop offset="100%" stop-color="#651E28"/>
    </linearGradient>
  </defs>
  <g transform="translate(210 182)">
    <circle r="128" fill="none" stroke="url(#goldGrad)" stroke-width="3.4"/>
    <path fill="url(#burgundyGrad)" fill-rule="evenodd" d="M 0 -128 A 128 128 0 1 1 -0.01 -128 Z M 0 -105 A 105 105 0 1 0 0.01 -105 Z"/>
    <circle r="105" fill="none" stroke="url(#goldGrad)" stroke-width="2.5"/>
  </g>
  <g transform="translate(210 118)">
    <path d="M -32 20 C -34 38 -16 50 0 52 C 16 50 34 38 32 20 C 22 26 11 30 0 30 C -11 30 -22 26 -32 20 Z" fill="#2F7A4A"/>
    <path d="M -48 8 C -40 26 -22 34 0 36 C 22 34 40 26 48 8 C 36 16 18 22 0 22 C -18 22 -36 16 -48 8 Z" fill="#3E9460"/>
    <path d="M -26 -4 C -28 14 -12 28 0 30 C 12 28 28 14 26 -4 C 18 4 9 8 0 8 C -9 8 -18 4 -26 -4 Z" fill="url(#goldGradVert)"/>
    <path d="M -17 -18 C -19 2 -8 16 0 18 C 8 16 19 2 17 -18 C 10 -8 5 -4 0 -4 C -5 -4 -10 -8 -17 -18 Z" fill="url(#goldGrad)"/>
    <path d="M -40 -26 C -32 -8 -18 0 0 0 C -14 -10 -24 -20 -40 -26 Z" fill="#1B4685"/>
    <path d="M 40 -26 C 32 -8 18 0 0 0 C 14 -10 24 -20 40 -26 Z" fill="#1B4685"/>
    <path d="M 0 -44 C -8 -26 -8 -6 0 4 C 8 -6 8 -26 0 -44 Z" fill="url(#goldGrad)"/>
  </g>
  <text x="210" y="238" text-anchor="middle" font-family="Georgia, 'Times New Roman', serif" font-size="36" font-weight="700" letter-spacing="1.5" fill="url(#goldGrad)">Marteder</text>
  <text x="210" y="272" text-anchor="middle" font-family="Georgia, 'Times New Roman', serif" font-size="36" font-weight="700" letter-spacing="2.5" fill="url(#goldGrad)">Textile</text>
</svg>
